<svg width="30" height="30" viewBox="0 0 30 30" fill="none" xmlns="http://www.w3.org/2000/svg">
<mask id="mask0_1562_39874" style="mask-type:alpha" maskUnits="userSpaceOnUse" x="0" y="0" width="30" height="30">
<rect width="30" height="30" rx="8" fill="#D9D9D9"/>
</mask>
<g mask="url(#mask0_1562_39874)">
<path d="M27.7781 0H2.21437C0.99375 0 0 0.968438 0 2.16094V27.8334C0 29.0288 0.99375 29.9991 2.21437 29.9991H27.78C29.0034 29.9991 30 29.0288 30 27.8334V2.16094C30 0.968438 29.0034 0 27.7781 0Z" fill="#0177B5"/>
<path d="M4.44845 11.2463H8.90626V25.562H4.44845V11.2463ZM6.67408 4.12134C8.09626 4.12134 9.2522 5.27728 9.2522 6.69946C9.2522 8.12165 8.09626 9.2804 6.67501 9.2804C5.99088 9.27892 5.33517 9.00655 4.85132 8.52288C4.36748 8.03921 4.09487 7.3836 4.09314 6.69946C4.09314 6.36066 4.15992 6.02518 4.28966 5.71221C4.41939 5.39923 4.60955 5.1149 4.84925 4.87546C5.08895 4.63602 5.37349 4.44618 5.68661 4.31678C5.99972 4.18738 6.33528 4.12097 6.67408 4.12134ZM11.6897 11.2463H15.9572V13.2029H16.0163C16.6106 12.0779 18.0619 10.891 20.235 10.891C24.7406 10.891 25.5722 13.8563 25.5722 17.7104V25.5629H21.1256V18.5992C21.1256 16.9398 21.0956 14.8023 18.8138 14.8023C16.4981 14.8023 16.1419 16.6117 16.1419 18.4773V25.5592H11.6963V11.2435L11.6897 11.2463Z" fill="white"/>
</g>
</svg>
